<svg width="1024" height="1024" viewBox="0 0 1024 1024" fill="none" xmlns="http://www.w3.org/2000/svg">
  <defs>
    <linearGradient id="gradient" x1="0%" y1="0%" x2="100%" y2="100%">
      <stop offset="0%" style="stop-color:#14B8A6;stop-opacity:1" />
      <stop offset="100%" style="stop-color:#0F766E;stop-opacity:1" />
    </linearGradient>
  </defs>
  
  <!-- Background -->
  <rect width="1024" height="1024" rx="200" fill="url(#gradient)"/>
  
  <!-- Main gear icon -->
  <g transform="translate(512, 512)">
    <!-- Outer gear -->
    <circle cx="0" cy="0" r="300" fill="none" stroke="white" stroke-width="20" opacity="0.9"/>
    
    <!-- Gear teeth -->
    <g stroke="white" stroke-width="25" stroke-linecap="round">
      <line x1="0" y1="-300" x2="0" y2="-200"/>
      <line x1="0" y1="200" x2="0" y2="300"/>
      <line x1="-300" y1="0" x2="-200" y2="0"/>
      <line x1="200" y1="0" x2="300" y2="0"/>
      
      <line x1="-212" y1="-212" x2="-141" y2="-141"/>
      <line x1="141" y1="141" x2="212" y2="212"/>
      <line x1="-212" y1="212" x2="-141" y2="141"/>
      <line x1="141" y1="-141" x2="212" y2="-212"/>
    </g>
    
    <!-- Inner circle -->
    <circle cx="0" cy="0" r="120" fill="white" opacity="0.9"/>
    
    <!-- Center icon -->
    <g transform="translate(0, 0)" fill="none" stroke="#14B8A6" stroke-width="15" stroke-linecap="round" stroke-linejoin="round">
      <!-- Wrench icon -->
      <path d="M-60 -20 L-20 -60 L20 -20 L60 -60 M-60 20 L-20 60 L20 20 L60 60"/>
      <circle cx="0" cy="0" r="15" fill="#14B8A6"/>
    </g>
  </g>
  
  <!-- Connection dots -->
  <g fill="white" opacity="0.8">
    <circle cx="200" cy="200" r="20"/>
    <circle cx="824" cy="200" r="20"/>
    <circle cx="200" cy="824" r="20"/>
    <circle cx="824" cy="824" r="20"/>
  </g>
</svg> 